<mxfile host="app.diagrams.net" modified="2023-09-15T02:29:25.145Z" agent="Mozilla/5.0 (Macintosh; Intel Mac OS X 10_15_7) AppleWebKit/537.36 (KHTML, like Gecko) Chrome/117.0.0.0 Safari/537.36" etag="HzsNVSxOJrXbDnmy4Kux" version="21.7.5" type="device">
  <diagram id="C5RBs43oDa-KdzZeNtuy" name="Page-1">
    <mxGraphModel dx="4323" dy="1474" grid="1" gridSize="10" guides="1" tooltips="1" connect="1" arrows="1" fold="1" page="1" pageScale="1" pageWidth="827" pageHeight="1169" math="0" shadow="0">
      <root>
        <mxCell id="WIyWlLk6GJQsqaUBKTNV-0" />
        <mxCell id="WIyWlLk6GJQsqaUBKTNV-1" parent="WIyWlLk6GJQsqaUBKTNV-0" />
        <mxCell id="Q0RuhpvUMVzjk3Nr_pSh-13" style="edgeStyle=orthogonalEdgeStyle;rounded=0;orthogonalLoop=1;jettySize=auto;html=1;exitX=1;exitY=0.5;exitDx=0;exitDy=0;" edge="1" parent="WIyWlLk6GJQsqaUBKTNV-1" source="WIyWlLk6GJQsqaUBKTNV-3">
          <mxGeometry relative="1" as="geometry">
            <mxPoint x="-20" y="330" as="targetPoint" />
          </mxGeometry>
        </mxCell>
        <mxCell id="WIyWlLk6GJQsqaUBKTNV-3" value="Salesforce Org" style="rounded=1;whiteSpace=wrap;html=1;fontSize=12;glass=0;strokeWidth=1;shadow=0;fillColor=#dae8fc;strokeColor=#6c8ebf;" parent="WIyWlLk6GJQsqaUBKTNV-1" vertex="1">
          <mxGeometry x="-490" y="80" width="190" height="80" as="geometry" />
        </mxCell>
        <mxCell id="Q0RuhpvUMVzjk3Nr_pSh-10" style="edgeStyle=orthogonalEdgeStyle;rounded=0;orthogonalLoop=1;jettySize=auto;html=1;exitX=1;exitY=0.5;exitDx=0;exitDy=0;entryX=0.5;entryY=0;entryDx=0;entryDy=0;" edge="1" parent="WIyWlLk6GJQsqaUBKTNV-1" source="WIyWlLk6GJQsqaUBKTNV-6" target="CDBHBQ4eIAazgi4NM_CD-1">
          <mxGeometry relative="1" as="geometry">
            <mxPoint x="160" y="460" as="targetPoint" />
          </mxGeometry>
        </mxCell>
        <mxCell id="Q0RuhpvUMVzjk3Nr_pSh-12" style="edgeStyle=orthogonalEdgeStyle;rounded=0;orthogonalLoop=1;jettySize=auto;html=1;exitX=0;exitY=0.5;exitDx=0;exitDy=0;entryX=0.5;entryY=0;entryDx=0;entryDy=0;" edge="1" parent="WIyWlLk6GJQsqaUBKTNV-1" source="WIyWlLk6GJQsqaUBKTNV-6" target="CDBHBQ4eIAazgi4NM_CD-13">
          <mxGeometry relative="1" as="geometry" />
        </mxCell>
        <mxCell id="WIyWlLk6GJQsqaUBKTNV-6" value="Backup&amp;nbsp; or Recovery" style="rhombus;whiteSpace=wrap;html=1;shadow=0;fontFamily=Helvetica;fontSize=12;align=center;strokeWidth=1;spacing=6;spacingTop=-4;fillColor=#f8cecc;strokeColor=#b85450;" parent="WIyWlLk6GJQsqaUBKTNV-1" vertex="1">
          <mxGeometry x="-70" y="335" width="100" height="80" as="geometry" />
        </mxCell>
        <mxCell id="Q0RuhpvUMVzjk3Nr_pSh-47" style="edgeStyle=orthogonalEdgeStyle;rounded=0;orthogonalLoop=1;jettySize=auto;html=1;exitX=1;exitY=0.5;exitDx=0;exitDy=0;entryX=0;entryY=0.5;entryDx=0;entryDy=0;" edge="1" parent="WIyWlLk6GJQsqaUBKTNV-1" source="CDBHBQ4eIAazgi4NM_CD-1" target="Q0RuhpvUMVzjk3Nr_pSh-33">
          <mxGeometry relative="1" as="geometry" />
        </mxCell>
        <mxCell id="Q0RuhpvUMVzjk3Nr_pSh-48" style="edgeStyle=orthogonalEdgeStyle;rounded=0;orthogonalLoop=1;jettySize=auto;html=1;exitX=0.5;exitY=1;exitDx=0;exitDy=0;entryX=0.5;entryY=0;entryDx=0;entryDy=0;" edge="1" parent="WIyWlLk6GJQsqaUBKTNV-1" source="CDBHBQ4eIAazgi4NM_CD-1" target="CDBHBQ4eIAazgi4NM_CD-3">
          <mxGeometry relative="1" as="geometry">
            <mxPoint x="170" y="760" as="targetPoint" />
          </mxGeometry>
        </mxCell>
        <mxCell id="CDBHBQ4eIAazgi4NM_CD-1" value="Data or Metadata" style="rhombus;whiteSpace=wrap;html=1;shadow=0;fontFamily=Helvetica;fontSize=12;align=center;strokeWidth=1;spacing=6;spacingTop=-4;fillColor=#f8cecc;strokeColor=#b85450;" parent="WIyWlLk6GJQsqaUBKTNV-1" vertex="1">
          <mxGeometry x="110" y="465" width="100" height="80" as="geometry" />
        </mxCell>
        <mxCell id="CDBHBQ4eIAazgi4NM_CD-45" style="edgeStyle=orthogonalEdgeStyle;rounded=0;orthogonalLoop=1;jettySize=auto;html=1;exitX=0.5;exitY=1;exitDx=0;exitDy=0;" parent="WIyWlLk6GJQsqaUBKTNV-1" source="CDBHBQ4eIAazgi4NM_CD-3" target="CDBHBQ4eIAazgi4NM_CD-35" edge="1">
          <mxGeometry relative="1" as="geometry" />
        </mxCell>
        <mxCell id="CDBHBQ4eIAazgi4NM_CD-46" style="edgeStyle=orthogonalEdgeStyle;rounded=0;orthogonalLoop=1;jettySize=auto;html=1;exitX=0.5;exitY=1;exitDx=0;exitDy=0;entryX=0.5;entryY=0;entryDx=0;entryDy=0;" parent="WIyWlLk6GJQsqaUBKTNV-1" source="CDBHBQ4eIAazgi4NM_CD-3" target="CDBHBQ4eIAazgi4NM_CD-33" edge="1">
          <mxGeometry relative="1" as="geometry" />
        </mxCell>
        <mxCell id="Q0RuhpvUMVzjk3Nr_pSh-4" style="edgeStyle=orthogonalEdgeStyle;rounded=0;orthogonalLoop=1;jettySize=auto;html=1;exitX=1;exitY=0.5;exitDx=0;exitDy=0;entryX=-0.05;entryY=0.442;entryDx=0;entryDy=0;entryPerimeter=0;" edge="1" parent="WIyWlLk6GJQsqaUBKTNV-1" source="CDBHBQ4eIAazgi4NM_CD-3" target="CDBHBQ4eIAazgi4NM_CD-6">
          <mxGeometry relative="1" as="geometry">
            <mxPoint x="319" y="815" as="targetPoint" />
            <Array as="points">
              <mxPoint x="281" y="815" />
              <mxPoint x="281" y="753" />
            </Array>
          </mxGeometry>
        </mxCell>
        <mxCell id="Q0RuhpvUMVzjk3Nr_pSh-20" style="edgeStyle=orthogonalEdgeStyle;rounded=0;orthogonalLoop=1;jettySize=auto;html=1;exitX=1;exitY=0.5;exitDx=0;exitDy=0;entryX=0.5;entryY=0;entryDx=0;entryDy=0;" edge="1" parent="WIyWlLk6GJQsqaUBKTNV-1" source="CDBHBQ4eIAazgi4NM_CD-3" target="CDBHBQ4eIAazgi4NM_CD-51">
          <mxGeometry relative="1" as="geometry" />
        </mxCell>
        <mxCell id="CDBHBQ4eIAazgi4NM_CD-3" value="Local or Cloud" style="rhombus;whiteSpace=wrap;html=1;fillColor=#e1d5e7;strokeColor=#9673a6;" parent="WIyWlLk6GJQsqaUBKTNV-1" vertex="1">
          <mxGeometry x="105" y="770" width="110" height="90" as="geometry" />
        </mxCell>
        <mxCell id="Q0RuhpvUMVzjk3Nr_pSh-22" style="edgeStyle=orthogonalEdgeStyle;rounded=0;orthogonalLoop=1;jettySize=auto;html=1;exitX=1;exitY=0.5;exitDx=0;exitDy=0;entryX=0.436;entryY=-0.091;entryDx=0;entryDy=0;entryPerimeter=0;" edge="1" parent="WIyWlLk6GJQsqaUBKTNV-1" source="CDBHBQ4eIAazgi4NM_CD-6" target="Q0RuhpvUMVzjk3Nr_pSh-21">
          <mxGeometry relative="1" as="geometry" />
        </mxCell>
        <mxCell id="CDBHBQ4eIAazgi4NM_CD-6" value="Schedule Export" style="rounded=1;whiteSpace=wrap;html=1;fillColor=#ffe6cc;strokeColor=#d79b00;" parent="WIyWlLk6GJQsqaUBKTNV-1" vertex="1">
          <mxGeometry x="339" y="740" width="70" height="30" as="geometry" />
        </mxCell>
        <mxCell id="Q0RuhpvUMVzjk3Nr_pSh-8" style="edgeStyle=orthogonalEdgeStyle;rounded=0;orthogonalLoop=1;jettySize=auto;html=1;exitX=0.5;exitY=1;exitDx=0;exitDy=0;entryX=0.5;entryY=0;entryDx=0;entryDy=0;" edge="1" parent="WIyWlLk6GJQsqaUBKTNV-1" source="CDBHBQ4eIAazgi4NM_CD-13" target="CDBHBQ4eIAazgi4NM_CD-14">
          <mxGeometry relative="1" as="geometry" />
        </mxCell>
        <mxCell id="Q0RuhpvUMVzjk3Nr_pSh-64" style="edgeStyle=orthogonalEdgeStyle;rounded=0;orthogonalLoop=1;jettySize=auto;html=1;exitX=0;exitY=0.5;exitDx=0;exitDy=0;entryX=1;entryY=0.5;entryDx=0;entryDy=0;" edge="1" parent="WIyWlLk6GJQsqaUBKTNV-1" source="CDBHBQ4eIAazgi4NM_CD-13" target="Q0RuhpvUMVzjk3Nr_pSh-54">
          <mxGeometry relative="1" as="geometry" />
        </mxCell>
        <mxCell id="CDBHBQ4eIAazgi4NM_CD-13" value="Data and Metadata" style="rhombus;whiteSpace=wrap;html=1;fillColor=#f8cecc;strokeColor=#b85450;" parent="WIyWlLk6GJQsqaUBKTNV-1" vertex="1">
          <mxGeometry x="-263" y="485" width="86" height="90" as="geometry" />
        </mxCell>
        <mxCell id="Q0RuhpvUMVzjk3Nr_pSh-6" style="edgeStyle=orthogonalEdgeStyle;rounded=0;orthogonalLoop=1;jettySize=auto;html=1;exitX=0.5;exitY=1;exitDx=0;exitDy=0;entryX=0.5;entryY=0;entryDx=0;entryDy=0;" edge="1" parent="WIyWlLk6GJQsqaUBKTNV-1" source="CDBHBQ4eIAazgi4NM_CD-14" target="CDBHBQ4eIAazgi4NM_CD-24">
          <mxGeometry relative="1" as="geometry" />
        </mxCell>
        <mxCell id="Q0RuhpvUMVzjk3Nr_pSh-7" style="edgeStyle=orthogonalEdgeStyle;rounded=0;orthogonalLoop=1;jettySize=auto;html=1;exitX=0;exitY=0.5;exitDx=0;exitDy=0;entryX=1;entryY=0.5;entryDx=0;entryDy=0;" edge="1" parent="WIyWlLk6GJQsqaUBKTNV-1" source="CDBHBQ4eIAazgi4NM_CD-14" target="CDBHBQ4eIAazgi4NM_CD-22">
          <mxGeometry relative="1" as="geometry" />
        </mxCell>
        <mxCell id="CDBHBQ4eIAazgi4NM_CD-14" value="Local or Cloud" style="rhombus;whiteSpace=wrap;html=1;fillColor=#e1d5e7;strokeColor=#9673a6;" parent="WIyWlLk6GJQsqaUBKTNV-1" vertex="1">
          <mxGeometry x="-275" y="650" width="110" height="90" as="geometry" />
        </mxCell>
        <mxCell id="Q0RuhpvUMVzjk3Nr_pSh-16" style="edgeStyle=orthogonalEdgeStyle;rounded=0;orthogonalLoop=1;jettySize=auto;html=1;exitX=0;exitY=0.5;exitDx=0;exitDy=0;entryX=0.5;entryY=0;entryDx=0;entryDy=0;" edge="1" parent="WIyWlLk6GJQsqaUBKTNV-1" source="CDBHBQ4eIAazgi4NM_CD-22" target="Q0RuhpvUMVzjk3Nr_pSh-14">
          <mxGeometry relative="1" as="geometry" />
        </mxCell>
        <mxCell id="CDBHBQ4eIAazgi4NM_CD-22" value="Add Zip files" style="rounded=1;whiteSpace=wrap;html=1;fillColor=#ffe6cc;strokeColor=#d79b00;" parent="WIyWlLk6GJQsqaUBKTNV-1" vertex="1">
          <mxGeometry x="-510" y="670" width="120" height="50" as="geometry" />
        </mxCell>
        <mxCell id="Q0RuhpvUMVzjk3Nr_pSh-17" style="edgeStyle=orthogonalEdgeStyle;rounded=0;orthogonalLoop=1;jettySize=auto;html=1;exitX=0;exitY=0.5;exitDx=0;exitDy=0;" edge="1" parent="WIyWlLk6GJQsqaUBKTNV-1" source="CDBHBQ4eIAazgi4NM_CD-24" target="Q0RuhpvUMVzjk3Nr_pSh-14">
          <mxGeometry relative="1" as="geometry" />
        </mxCell>
        <mxCell id="CDBHBQ4eIAazgi4NM_CD-24" value="select files from cloud" style="rounded=1;whiteSpace=wrap;html=1;fillColor=#d5e8d4;strokeColor=#82b366;" parent="WIyWlLk6GJQsqaUBKTNV-1" vertex="1">
          <mxGeometry x="-275" y="850" width="110" height="50" as="geometry" />
        </mxCell>
        <mxCell id="CDBHBQ4eIAazgi4NM_CD-25" value="cloud" style="text;html=1;align=center;verticalAlign=middle;resizable=0;points=[];autosize=1;strokeColor=none;fillColor=none;" parent="WIyWlLk6GJQsqaUBKTNV-1" vertex="1">
          <mxGeometry x="-210" y="775" width="50" height="30" as="geometry" />
        </mxCell>
        <mxCell id="CDBHBQ4eIAazgi4NM_CD-26" value="Local" style="text;html=1;align=center;verticalAlign=middle;resizable=0;points=[];autosize=1;strokeColor=none;fillColor=none;" parent="WIyWlLk6GJQsqaUBKTNV-1" vertex="1">
          <mxGeometry x="-340" y="665" width="50" height="30" as="geometry" />
        </mxCell>
        <mxCell id="CDBHBQ4eIAazgi4NM_CD-27" value="&lt;meta charset=&quot;utf-8&quot;&gt;&lt;span style=&quot;color: rgb(0, 0, 0); font-family: Helvetica; font-size: 12px; font-style: normal; font-variant-ligatures: normal; font-variant-caps: normal; font-weight: 400; letter-spacing: normal; orphans: 2; text-align: center; text-indent: 0px; text-transform: none; widows: 2; word-spacing: 0px; -webkit-text-stroke-width: 0px; background-color: rgb(251, 251, 251); text-decoration-thickness: initial; text-decoration-style: initial; text-decoration-color: initial; float: none; display: inline !important;&quot;&gt;Local&lt;/span&gt;" style="text;whiteSpace=wrap;html=1;" parent="WIyWlLk6GJQsqaUBKTNV-1" vertex="1">
          <mxGeometry x="224" y="770" width="60" height="40" as="geometry" />
        </mxCell>
        <mxCell id="CDBHBQ4eIAazgi4NM_CD-28" value="&lt;meta charset=&quot;utf-8&quot;&gt;&lt;span style=&quot;color: rgb(0, 0, 0); font-family: Helvetica; font-size: 12px; font-style: normal; font-variant-ligatures: normal; font-variant-caps: normal; font-weight: 400; letter-spacing: normal; orphans: 2; text-align: center; text-indent: 0px; text-transform: none; widows: 2; word-spacing: 0px; -webkit-text-stroke-width: 0px; background-color: rgb(251, 251, 251); text-decoration-thickness: initial; text-decoration-style: initial; text-decoration-color: initial; float: none; display: inline !important;&quot;&gt;cloud&lt;/span&gt;" style="text;whiteSpace=wrap;html=1;" parent="WIyWlLk6GJQsqaUBKTNV-1" vertex="1">
          <mxGeometry x="179" y="890" width="30" height="30" as="geometry" />
        </mxCell>
        <mxCell id="Q0RuhpvUMVzjk3Nr_pSh-25" style="edgeStyle=orthogonalEdgeStyle;rounded=0;orthogonalLoop=1;jettySize=auto;html=1;exitX=0.5;exitY=1;exitDx=0;exitDy=0;entryX=1;entryY=0.5;entryDx=0;entryDy=0;" edge="1" parent="WIyWlLk6GJQsqaUBKTNV-1" source="CDBHBQ4eIAazgi4NM_CD-33" target="Q0RuhpvUMVzjk3Nr_pSh-21">
          <mxGeometry relative="1" as="geometry">
            <mxPoint x="689" y="985" as="targetPoint" />
            <Array as="points">
              <mxPoint x="109" y="1130" />
              <mxPoint x="759" y="1130" />
              <mxPoint x="759" y="985" />
            </Array>
          </mxGeometry>
        </mxCell>
        <mxCell id="CDBHBQ4eIAazgi4NM_CD-33" value="schedule upload to cloud" style="rounded=1;whiteSpace=wrap;html=1;fillColor=#d5e8d4;strokeColor=#82b366;" parent="WIyWlLk6GJQsqaUBKTNV-1" vertex="1">
          <mxGeometry x="59" y="1060" width="100" height="50" as="geometry" />
        </mxCell>
        <mxCell id="Q0RuhpvUMVzjk3Nr_pSh-24" style="edgeStyle=orthogonalEdgeStyle;rounded=0;orthogonalLoop=1;jettySize=auto;html=1;exitX=1;exitY=0.5;exitDx=0;exitDy=0;entryX=0.565;entryY=0.969;entryDx=0;entryDy=0;entryPerimeter=0;" edge="1" parent="WIyWlLk6GJQsqaUBKTNV-1" source="CDBHBQ4eIAazgi4NM_CD-35" target="Q0RuhpvUMVzjk3Nr_pSh-21">
          <mxGeometry relative="1" as="geometry" />
        </mxCell>
        <mxCell id="CDBHBQ4eIAazgi4NM_CD-35" value="upload to cloud" style="rounded=1;whiteSpace=wrap;html=1;fillColor=#d5e8d4;strokeColor=#82b366;" parent="WIyWlLk6GJQsqaUBKTNV-1" vertex="1">
          <mxGeometry x="249" y="1060" width="80" height="40" as="geometry" />
        </mxCell>
        <mxCell id="Q0RuhpvUMVzjk3Nr_pSh-23" style="edgeStyle=orthogonalEdgeStyle;rounded=0;orthogonalLoop=1;jettySize=auto;html=1;exitX=0.5;exitY=1;exitDx=0;exitDy=0;entryX=0;entryY=0.5;entryDx=0;entryDy=0;" edge="1" parent="WIyWlLk6GJQsqaUBKTNV-1" source="CDBHBQ4eIAazgi4NM_CD-51" target="Q0RuhpvUMVzjk3Nr_pSh-21">
          <mxGeometry relative="1" as="geometry" />
        </mxCell>
        <mxCell id="CDBHBQ4eIAazgi4NM_CD-51" value="Export Now" style="rounded=1;whiteSpace=wrap;html=1;fillColor=#ffe6cc;strokeColor=#d79b00;" parent="WIyWlLk6GJQsqaUBKTNV-1" vertex="1">
          <mxGeometry x="339" y="875" width="70" height="30" as="geometry" />
        </mxCell>
        <mxCell id="Q0RuhpvUMVzjk3Nr_pSh-18" style="edgeStyle=orthogonalEdgeStyle;rounded=0;orthogonalLoop=1;jettySize=auto;html=1;exitX=0.5;exitY=1;exitDx=0;exitDy=0;entryX=0.5;entryY=0;entryDx=0;entryDy=0;" edge="1" parent="WIyWlLk6GJQsqaUBKTNV-1" source="Q0RuhpvUMVzjk3Nr_pSh-14" target="Q0RuhpvUMVzjk3Nr_pSh-15">
          <mxGeometry relative="1" as="geometry" />
        </mxCell>
        <mxCell id="Q0RuhpvUMVzjk3Nr_pSh-14" value="Recovery" style="rounded=1;whiteSpace=wrap;html=1;fillColor=#fff2cc;strokeColor=#d6b656;" vertex="1" parent="WIyWlLk6GJQsqaUBKTNV-1">
          <mxGeometry x="-710" y="852.5" width="100" height="45" as="geometry" />
        </mxCell>
        <mxCell id="Q0RuhpvUMVzjk3Nr_pSh-15" value="Email Sent" style="rounded=1;whiteSpace=wrap;html=1;fillColor=#fff2cc;strokeColor=#d6b656;" vertex="1" parent="WIyWlLk6GJQsqaUBKTNV-1">
          <mxGeometry x="-720" y="1020" width="120" height="60" as="geometry" />
        </mxCell>
        <mxCell id="Q0RuhpvUMVzjk3Nr_pSh-28" style="edgeStyle=orthogonalEdgeStyle;rounded=0;orthogonalLoop=1;jettySize=auto;html=1;exitX=0.75;exitY=0;exitDx=0;exitDy=0;entryX=0;entryY=0.5;entryDx=0;entryDy=0;" edge="1" parent="WIyWlLk6GJQsqaUBKTNV-1" source="Q0RuhpvUMVzjk3Nr_pSh-21" target="Q0RuhpvUMVzjk3Nr_pSh-27">
          <mxGeometry relative="1" as="geometry" />
        </mxCell>
        <mxCell id="Q0RuhpvUMVzjk3Nr_pSh-21" value="Backup" style="rounded=1;whiteSpace=wrap;html=1;" vertex="1" parent="WIyWlLk6GJQsqaUBKTNV-1">
          <mxGeometry x="589" y="965" width="90" height="40" as="geometry" />
        </mxCell>
        <mxCell id="Q0RuhpvUMVzjk3Nr_pSh-27" value="Email Sent" style="rounded=1;whiteSpace=wrap;html=1;" vertex="1" parent="WIyWlLk6GJQsqaUBKTNV-1">
          <mxGeometry x="689" y="845" width="80" height="50" as="geometry" />
        </mxCell>
        <mxCell id="Q0RuhpvUMVzjk3Nr_pSh-29" style="edgeStyle=orthogonalEdgeStyle;rounded=0;orthogonalLoop=1;jettySize=auto;html=1;exitX=0.5;exitY=1;exitDx=0;exitDy=0;" edge="1" parent="WIyWlLk6GJQsqaUBKTNV-1" source="Q0RuhpvUMVzjk3Nr_pSh-33" target="Q0RuhpvUMVzjk3Nr_pSh-40">
          <mxGeometry relative="1" as="geometry" />
        </mxCell>
        <mxCell id="Q0RuhpvUMVzjk3Nr_pSh-30" style="edgeStyle=orthogonalEdgeStyle;rounded=0;orthogonalLoop=1;jettySize=auto;html=1;exitX=0.5;exitY=1;exitDx=0;exitDy=0;entryX=0.5;entryY=0;entryDx=0;entryDy=0;" edge="1" parent="WIyWlLk6GJQsqaUBKTNV-1" source="Q0RuhpvUMVzjk3Nr_pSh-33" target="Q0RuhpvUMVzjk3Nr_pSh-38">
          <mxGeometry relative="1" as="geometry" />
        </mxCell>
        <mxCell id="Q0RuhpvUMVzjk3Nr_pSh-31" style="edgeStyle=orthogonalEdgeStyle;rounded=0;orthogonalLoop=1;jettySize=auto;html=1;exitX=1;exitY=0.5;exitDx=0;exitDy=0;entryX=-0.05;entryY=0.442;entryDx=0;entryDy=0;entryPerimeter=0;" edge="1" parent="WIyWlLk6GJQsqaUBKTNV-1" source="Q0RuhpvUMVzjk3Nr_pSh-33">
          <mxGeometry relative="1" as="geometry">
            <mxPoint x="677" y="100" as="targetPoint" />
            <Array as="points">
              <mxPoint x="622" y="162" />
              <mxPoint x="622" y="100" />
            </Array>
          </mxGeometry>
        </mxCell>
        <mxCell id="Q0RuhpvUMVzjk3Nr_pSh-32" style="edgeStyle=orthogonalEdgeStyle;rounded=0;orthogonalLoop=1;jettySize=auto;html=1;exitX=1;exitY=0.5;exitDx=0;exitDy=0;entryX=0.5;entryY=0;entryDx=0;entryDy=0;" edge="1" parent="WIyWlLk6GJQsqaUBKTNV-1" source="Q0RuhpvUMVzjk3Nr_pSh-33" target="Q0RuhpvUMVzjk3Nr_pSh-42">
          <mxGeometry relative="1" as="geometry" />
        </mxCell>
        <mxCell id="Q0RuhpvUMVzjk3Nr_pSh-33" value="Local or Cloud" style="rhombus;whiteSpace=wrap;html=1;fillColor=#e1d5e7;strokeColor=#9673a6;" vertex="1" parent="WIyWlLk6GJQsqaUBKTNV-1">
          <mxGeometry x="455" y="117" width="110" height="90" as="geometry" />
        </mxCell>
        <mxCell id="Q0RuhpvUMVzjk3Nr_pSh-34" style="edgeStyle=orthogonalEdgeStyle;rounded=0;orthogonalLoop=1;jettySize=auto;html=1;exitX=1;exitY=0.5;exitDx=0;exitDy=0;entryX=0.436;entryY=-0.091;entryDx=0;entryDy=0;entryPerimeter=0;" edge="1" parent="WIyWlLk6GJQsqaUBKTNV-1" target="Q0RuhpvUMVzjk3Nr_pSh-44">
          <mxGeometry relative="1" as="geometry">
            <mxPoint x="750" y="102" as="sourcePoint" />
          </mxGeometry>
        </mxCell>
        <mxCell id="Q0RuhpvUMVzjk3Nr_pSh-35" value="&lt;meta charset=&quot;utf-8&quot;&gt;&lt;span style=&quot;color: rgb(0, 0, 0); font-family: Helvetica; font-size: 12px; font-style: normal; font-variant-ligatures: normal; font-variant-caps: normal; font-weight: 400; letter-spacing: normal; orphans: 2; text-align: center; text-indent: 0px; text-transform: none; widows: 2; word-spacing: 0px; -webkit-text-stroke-width: 0px; background-color: rgb(251, 251, 251); text-decoration-thickness: initial; text-decoration-style: initial; text-decoration-color: initial; float: none; display: inline !important;&quot;&gt;Local&lt;/span&gt;" style="text;whiteSpace=wrap;html=1;" vertex="1" parent="WIyWlLk6GJQsqaUBKTNV-1">
          <mxGeometry x="565" y="117" width="60" height="40" as="geometry" />
        </mxCell>
        <mxCell id="Q0RuhpvUMVzjk3Nr_pSh-36" value="&lt;meta charset=&quot;utf-8&quot;&gt;&lt;span style=&quot;color: rgb(0, 0, 0); font-family: Helvetica; font-size: 12px; font-style: normal; font-variant-ligatures: normal; font-variant-caps: normal; font-weight: 400; letter-spacing: normal; orphans: 2; text-align: center; text-indent: 0px; text-transform: none; widows: 2; word-spacing: 0px; -webkit-text-stroke-width: 0px; background-color: rgb(251, 251, 251); text-decoration-thickness: initial; text-decoration-style: initial; text-decoration-color: initial; float: none; display: inline !important;&quot;&gt;cloud&lt;/span&gt;" style="text;whiteSpace=wrap;html=1;" vertex="1" parent="WIyWlLk6GJQsqaUBKTNV-1">
          <mxGeometry x="520" y="237" width="30" height="30" as="geometry" />
        </mxCell>
        <mxCell id="Q0RuhpvUMVzjk3Nr_pSh-37" style="edgeStyle=orthogonalEdgeStyle;rounded=0;orthogonalLoop=1;jettySize=auto;html=1;exitX=0.5;exitY=1;exitDx=0;exitDy=0;entryX=1;entryY=0.5;entryDx=0;entryDy=0;" edge="1" parent="WIyWlLk6GJQsqaUBKTNV-1" source="Q0RuhpvUMVzjk3Nr_pSh-38" target="Q0RuhpvUMVzjk3Nr_pSh-44">
          <mxGeometry relative="1" as="geometry">
            <mxPoint x="1030" y="332" as="targetPoint" />
            <Array as="points">
              <mxPoint x="450" y="477" />
              <mxPoint x="1100" y="477" />
              <mxPoint x="1100" y="332" />
            </Array>
          </mxGeometry>
        </mxCell>
        <mxCell id="Q0RuhpvUMVzjk3Nr_pSh-38" value="schedule upload to cloud" style="rounded=1;whiteSpace=wrap;html=1;fillColor=#d5e8d4;strokeColor=#82b366;" vertex="1" parent="WIyWlLk6GJQsqaUBKTNV-1">
          <mxGeometry x="400" y="407" width="100" height="50" as="geometry" />
        </mxCell>
        <mxCell id="Q0RuhpvUMVzjk3Nr_pSh-39" style="edgeStyle=orthogonalEdgeStyle;rounded=0;orthogonalLoop=1;jettySize=auto;html=1;exitX=1;exitY=0.5;exitDx=0;exitDy=0;entryX=0.565;entryY=0.969;entryDx=0;entryDy=0;entryPerimeter=0;" edge="1" parent="WIyWlLk6GJQsqaUBKTNV-1" source="Q0RuhpvUMVzjk3Nr_pSh-40" target="Q0RuhpvUMVzjk3Nr_pSh-44">
          <mxGeometry relative="1" as="geometry" />
        </mxCell>
        <mxCell id="Q0RuhpvUMVzjk3Nr_pSh-40" value="upload to cloud" style="rounded=1;whiteSpace=wrap;html=1;fillColor=#d5e8d4;strokeColor=#82b366;" vertex="1" parent="WIyWlLk6GJQsqaUBKTNV-1">
          <mxGeometry x="590" y="407" width="80" height="40" as="geometry" />
        </mxCell>
        <mxCell id="Q0RuhpvUMVzjk3Nr_pSh-41" style="edgeStyle=orthogonalEdgeStyle;rounded=0;orthogonalLoop=1;jettySize=auto;html=1;exitX=0.5;exitY=1;exitDx=0;exitDy=0;entryX=0;entryY=0.5;entryDx=0;entryDy=0;" edge="1" parent="WIyWlLk6GJQsqaUBKTNV-1" source="Q0RuhpvUMVzjk3Nr_pSh-42" target="Q0RuhpvUMVzjk3Nr_pSh-44">
          <mxGeometry relative="1" as="geometry" />
        </mxCell>
        <mxCell id="Q0RuhpvUMVzjk3Nr_pSh-42" value="Export Now" style="rounded=1;whiteSpace=wrap;html=1;fillColor=#ffe6cc;strokeColor=#d79b00;" vertex="1" parent="WIyWlLk6GJQsqaUBKTNV-1">
          <mxGeometry x="680" y="222" width="70" height="30" as="geometry" />
        </mxCell>
        <mxCell id="Q0RuhpvUMVzjk3Nr_pSh-43" style="edgeStyle=orthogonalEdgeStyle;rounded=0;orthogonalLoop=1;jettySize=auto;html=1;exitX=0.75;exitY=0;exitDx=0;exitDy=0;entryX=0;entryY=0.5;entryDx=0;entryDy=0;" edge="1" parent="WIyWlLk6GJQsqaUBKTNV-1" source="Q0RuhpvUMVzjk3Nr_pSh-44" target="Q0RuhpvUMVzjk3Nr_pSh-45">
          <mxGeometry relative="1" as="geometry" />
        </mxCell>
        <mxCell id="Q0RuhpvUMVzjk3Nr_pSh-44" value="Backup" style="rounded=1;whiteSpace=wrap;html=1;fillColor=#fff2cc;strokeColor=#d6b656;" vertex="1" parent="WIyWlLk6GJQsqaUBKTNV-1">
          <mxGeometry x="930" y="312" width="90" height="40" as="geometry" />
        </mxCell>
        <mxCell id="Q0RuhpvUMVzjk3Nr_pSh-45" value="Email Sent" style="rounded=1;whiteSpace=wrap;html=1;fillColor=#fff2cc;strokeColor=#d6b656;" vertex="1" parent="WIyWlLk6GJQsqaUBKTNV-1">
          <mxGeometry x="1030" y="192" width="80" height="50" as="geometry" />
        </mxCell>
        <mxCell id="Q0RuhpvUMVzjk3Nr_pSh-46" value="Schedule Export" style="rounded=1;whiteSpace=wrap;html=1;fillColor=#ffe6cc;strokeColor=#d79b00;" vertex="1" parent="WIyWlLk6GJQsqaUBKTNV-1">
          <mxGeometry x="680" y="87" width="70" height="30" as="geometry" />
        </mxCell>
        <mxCell id="Q0RuhpvUMVzjk3Nr_pSh-49" value="Data&lt;br&gt;" style="text;html=1;align=center;verticalAlign=middle;resizable=0;points=[];autosize=1;strokeColor=none;fillColor=none;" vertex="1" parent="WIyWlLk6GJQsqaUBKTNV-1">
          <mxGeometry x="165" y="618" width="50" height="30" as="geometry" />
        </mxCell>
        <mxCell id="Q0RuhpvUMVzjk3Nr_pSh-50" value="Metadata" style="text;html=1;align=center;verticalAlign=middle;resizable=0;points=[];autosize=1;strokeColor=none;fillColor=none;" vertex="1" parent="WIyWlLk6GJQsqaUBKTNV-1">
          <mxGeometry x="255" y="298" width="70" height="30" as="geometry" />
        </mxCell>
        <mxCell id="Q0RuhpvUMVzjk3Nr_pSh-51" value="Data" style="text;html=1;align=center;verticalAlign=middle;resizable=0;points=[];autosize=1;strokeColor=none;fillColor=none;" vertex="1" parent="WIyWlLk6GJQsqaUBKTNV-1">
          <mxGeometry x="-195" y="598" width="50" height="30" as="geometry" />
        </mxCell>
        <mxCell id="Q0RuhpvUMVzjk3Nr_pSh-52" style="edgeStyle=orthogonalEdgeStyle;rounded=0;orthogonalLoop=1;jettySize=auto;html=1;exitX=0.5;exitY=1;exitDx=0;exitDy=0;entryX=0.5;entryY=0;entryDx=0;entryDy=0;" edge="1" parent="WIyWlLk6GJQsqaUBKTNV-1" source="Q0RuhpvUMVzjk3Nr_pSh-54" target="Q0RuhpvUMVzjk3Nr_pSh-58">
          <mxGeometry relative="1" as="geometry" />
        </mxCell>
        <mxCell id="Q0RuhpvUMVzjk3Nr_pSh-53" style="edgeStyle=orthogonalEdgeStyle;rounded=0;orthogonalLoop=1;jettySize=auto;html=1;exitX=0;exitY=0.5;exitDx=0;exitDy=0;entryX=1;entryY=0.5;entryDx=0;entryDy=0;" edge="1" parent="WIyWlLk6GJQsqaUBKTNV-1" source="Q0RuhpvUMVzjk3Nr_pSh-54" target="Q0RuhpvUMVzjk3Nr_pSh-56">
          <mxGeometry relative="1" as="geometry" />
        </mxCell>
        <mxCell id="Q0RuhpvUMVzjk3Nr_pSh-54" value="Local or Cloud" style="rhombus;whiteSpace=wrap;html=1;fillColor=#e1d5e7;strokeColor=#9673a6;" vertex="1" parent="WIyWlLk6GJQsqaUBKTNV-1">
          <mxGeometry x="-827" y="310" width="110" height="90" as="geometry" />
        </mxCell>
        <mxCell id="Q0RuhpvUMVzjk3Nr_pSh-55" style="edgeStyle=orthogonalEdgeStyle;rounded=0;orthogonalLoop=1;jettySize=auto;html=1;exitX=0;exitY=0.5;exitDx=0;exitDy=0;entryX=0.5;entryY=0;entryDx=0;entryDy=0;" edge="1" parent="WIyWlLk6GJQsqaUBKTNV-1" source="Q0RuhpvUMVzjk3Nr_pSh-56" target="Q0RuhpvUMVzjk3Nr_pSh-62">
          <mxGeometry relative="1" as="geometry" />
        </mxCell>
        <mxCell id="Q0RuhpvUMVzjk3Nr_pSh-56" value="Add Zip files" style="rounded=1;whiteSpace=wrap;html=1;fillColor=#ffe6cc;strokeColor=#d79b00;" vertex="1" parent="WIyWlLk6GJQsqaUBKTNV-1">
          <mxGeometry x="-1060" y="330" width="120" height="50" as="geometry" />
        </mxCell>
        <mxCell id="Q0RuhpvUMVzjk3Nr_pSh-57" style="edgeStyle=orthogonalEdgeStyle;rounded=0;orthogonalLoop=1;jettySize=auto;html=1;exitX=0;exitY=0.5;exitDx=0;exitDy=0;" edge="1" parent="WIyWlLk6GJQsqaUBKTNV-1" source="Q0RuhpvUMVzjk3Nr_pSh-58" target="Q0RuhpvUMVzjk3Nr_pSh-62">
          <mxGeometry relative="1" as="geometry" />
        </mxCell>
        <mxCell id="Q0RuhpvUMVzjk3Nr_pSh-58" value="select files from cloud" style="rounded=1;whiteSpace=wrap;html=1;fillColor=#d5e8d4;strokeColor=#82b366;" vertex="1" parent="WIyWlLk6GJQsqaUBKTNV-1">
          <mxGeometry x="-825" y="510" width="110" height="50" as="geometry" />
        </mxCell>
        <mxCell id="Q0RuhpvUMVzjk3Nr_pSh-59" value="cloud" style="text;html=1;align=center;verticalAlign=middle;resizable=0;points=[];autosize=1;strokeColor=none;fillColor=none;" vertex="1" parent="WIyWlLk6GJQsqaUBKTNV-1">
          <mxGeometry x="-760" y="435" width="50" height="30" as="geometry" />
        </mxCell>
        <mxCell id="Q0RuhpvUMVzjk3Nr_pSh-60" value="Local" style="text;html=1;align=center;verticalAlign=middle;resizable=0;points=[];autosize=1;strokeColor=none;fillColor=none;" vertex="1" parent="WIyWlLk6GJQsqaUBKTNV-1">
          <mxGeometry x="-890" y="325" width="50" height="30" as="geometry" />
        </mxCell>
        <mxCell id="Q0RuhpvUMVzjk3Nr_pSh-61" style="edgeStyle=orthogonalEdgeStyle;rounded=0;orthogonalLoop=1;jettySize=auto;html=1;exitX=0.5;exitY=1;exitDx=0;exitDy=0;entryX=0.5;entryY=0;entryDx=0;entryDy=0;" edge="1" parent="WIyWlLk6GJQsqaUBKTNV-1" source="Q0RuhpvUMVzjk3Nr_pSh-62" target="Q0RuhpvUMVzjk3Nr_pSh-63">
          <mxGeometry relative="1" as="geometry" />
        </mxCell>
        <mxCell id="Q0RuhpvUMVzjk3Nr_pSh-62" value="Recovery" style="rounded=1;whiteSpace=wrap;html=1;fillColor=#fff2cc;strokeColor=#d6b656;" vertex="1" parent="WIyWlLk6GJQsqaUBKTNV-1">
          <mxGeometry x="-1260" y="512.5" width="100" height="45" as="geometry" />
        </mxCell>
        <mxCell id="Q0RuhpvUMVzjk3Nr_pSh-63" value="Email Sent" style="rounded=1;whiteSpace=wrap;html=1;fillColor=#fff2cc;strokeColor=#d6b656;" vertex="1" parent="WIyWlLk6GJQsqaUBKTNV-1">
          <mxGeometry x="-1270" y="680" width="120" height="60" as="geometry" />
        </mxCell>
        <mxCell id="Q0RuhpvUMVzjk3Nr_pSh-65" value="Metadata" style="text;html=1;align=center;verticalAlign=middle;resizable=0;points=[];autosize=1;strokeColor=none;fillColor=none;" vertex="1" parent="WIyWlLk6GJQsqaUBKTNV-1">
          <mxGeometry x="-415" y="498" width="70" height="30" as="geometry" />
        </mxCell>
        <mxCell id="Q0RuhpvUMVzjk3Nr_pSh-66" value="Backup" style="text;html=1;align=center;verticalAlign=middle;resizable=0;points=[];autosize=1;strokeColor=none;fillColor=none;" vertex="1" parent="WIyWlLk6GJQsqaUBKTNV-1">
          <mxGeometry x="59" y="328" width="60" height="30" as="geometry" />
        </mxCell>
        <mxCell id="Q0RuhpvUMVzjk3Nr_pSh-67" value="Reocvery" style="text;html=1;align=center;verticalAlign=middle;resizable=0;points=[];autosize=1;strokeColor=none;fillColor=none;" vertex="1" parent="WIyWlLk6GJQsqaUBKTNV-1">
          <mxGeometry x="-177" y="330" width="70" height="30" as="geometry" />
        </mxCell>
      </root>
    </mxGraphModel>
  </diagram>
</mxfile>
